<?xml version="1.0" standalone="no"?>
<!DOCTYPE svg PUBLIC "-//W3C//DTD SVG 20010904//EN"
 "http://www.w3.org/TR/2001/REC-SVG-20010904/DTD/svg10.dtd">
<svg version="1.0" xmlns="http://www.w3.org/2000/svg"
 width="1280.000000pt" height="698.000000pt" viewBox="0 0 1280.000000 698.000000"
 preserveAspectRatio="xMidYMid meet">

<g transform="translate(0.000000,698.000000) scale(0.100000,-0.100000)"
fill="#000000" stroke="none">
<path d="M7840 5373 c-111 -26 -331 -72 -595 -123 -148 -29 -277 -56 -285 -60
-11 -6 9 -32 88 -112 56 -57 102 -111 102 -120 0 -9 -20 -33 -45 -54 l-46 -37
-43 21 c-24 12 -48 22 -54 22 -7 0 -130 38 -275 85 -145 47 -275 85 -289 85
-14 0 -38 -4 -54 -9 -161 -52 -845 -277 -901 -297 -54 -19 -72 -31 -76 -47 -9
-36 -10 -661 -2 -807 l8 -135 -92 -97 c-89 -94 -92 -96 -129 -91 -33 4 -44 1
-75 -27 -41 -35 -46 -60 -23 -115 17 -39 42 -55 89 -55 46 0 97 46 97 87 0 37
20 55 145 127 55 32 138 80 184 107 46 27 85 48 87 47 1 -2 -30 -42 -70 -89
-39 -47 -87 -108 -106 -134 -37 -49 -66 -83 -269 -309 -110 -122 -127 -137
-150 -133 -14 3 -40 -1 -57 -8 -69 -29 -86 -105 -33 -149 37 -31 81 -34 126
-6 38 23 48 54 35 104 -9 32 -7 39 21 75 44 55 185 212 265 296 37 39 102 112
146 163 43 51 81 91 84 88 5 -5 -105 -203 -157 -281 -17 -26 -35 -41 -51 -43
-55 -6 -70 -14 -85 -42 -37 -72 2 -160 71 -160 42 0 87 22 108 52 19 27 27 21
101 -77 90 -121 277 -282 480 -416 129 -85 180 -119 214 -144 51 -37 81 -32
190 32 471 278 753 572 851 886 57 183 63 236 69 688 6 391 7 418 25 438 11
12 24 21 30 21 6 0 63 -53 128 -117 l117 -117 15 36 c9 20 18 63 21 95 4 32
12 101 20 153 8 52 19 131 25 175 6 44 18 103 25 130 16 58 61 290 68 352 6
55 -5 63 -73 46z m14 -86 c-15 -83 -48 -253 -69 -352 -13 -60 -28 -144 -34
-185 -6 -41 -18 -118 -28 -170 l-16 -95 -104 110 -103 109 -118 -115 c-296
-290 -633 -619 -800 -779 l-182 -175 0 -62 c0 -35 4 -63 9 -63 5 0 48 16 97
36 200 82 467 184 471 180 6 -6 -64 -267 -73 -276 -5 -4 -99 -44 -209 -88
-110 -44 -221 -90 -247 -102 l-48 -21 0 -314 c0 -173 2 -315 5 -315 3 0 53 30
112 66 210 128 332 223 488 379 137 136 156 160 207 255 31 58 71 146 87 197
54 165 61 234 61 595 0 207 4 329 10 333 17 11 13 -677 -5 -770 -50 -262 -156
-458 -355 -654 -134 -133 -278 -239 -522 -387 -128 -78 -122 -94 -127 317 -2
245 0 329 9 329 6 0 9 4 5 9 -3 5 0 13 6 17 8 4 9 3 5 -4 -12 -20 10 -14 101
27 49 21 105 44 126 51 20 6 37 13 37 14 0 5 -89 -2 -99 -8 -16 -10 -14 9 3
23 7 6 39 20 71 31 44 15 62 17 78 9 20 -11 20 -12 -4 -25 -35 -20 -22 -17 54
11 120 43 119 42 144 123 12 41 25 87 28 103 l7 29 -53 -25 c-29 -13 -58 -34
-65 -46 -14 -27 -37 -37 -81 -38 -28 -1 -34 -6 -41 -33 -8 -31 -14 -34 -142
-80 -74 -26 -142 -48 -151 -48 -35 0 -42 27 -40 151 l2 121 -123 125 -124 125
-287 -293 c-158 -161 -290 -290 -293 -286 -7 7 11 41 56 102 21 28 61 95 90
150 75 140 86 155 120 155 44 0 82 39 89 91 7 50 26 66 175 142 88 45 88 46
123 29 34 -16 53 -49 133 -228 25 -57 63 -104 85 -104 20 0 136 133 211 242
68 97 165 233 223 312 31 41 38 46 65 41 21 -4 43 2 71 18 36 20 41 28 45 69
6 47 23 78 45 78 7 0 18 7 25 15 7 8 17 15 23 15 6 0 2 -7 -10 -15 -13 -9 -20
-22 -17 -30 4 -9 0 -15 -7 -16 -8 0 -3 -5 10 -10 15 -6 21 -15 17 -24 -3 -8
-4 -15 -3 -15 1 0 41 39 87 87 49 50 69 75 48 59 -21 -15 -38 -22 -38 -17 0 6
-5 11 -11 11 -5 0 -8 -4 -5 -9 6 -10 -24 -25 -32 -16 -3 2 1 11 8 20 15 18
160 107 160 99 0 -4 7 -1 15 6 8 7 15 9 15 6 0 -4 32 20 70 54 39 33 76 60 84
60 7 0 48 -38 92 -85 43 -47 82 -85 85 -85 4 0 9 24 13 53 4 28 16 95 26 147
11 52 26 141 34 197 9 56 24 137 35 180 36 149 36 142 -1 92 -19 -24 -40 -60
-48 -79 -21 -53 -66 -143 -84 -165 -16 -19 -16 -19 -7 7 8 20 6 29 -7 41 -23
20 -40 11 -57 -29 -8 -19 -21 -34 -29 -34 -26 0 -86 -60 -86 -86 0 -19 7 -26
29 -30 44 -9 46 -30 3 -59 -39 -27 -61 -33 -44 -12 14 17 3 65 -17 69 -15 4
-231 -186 -231 -203 0 -4 10 -9 23 -11 19 -3 15 -8 -28 -36 -27 -17 -56 -30
-62 -27 -7 2 -13 0 -13 -5 0 -10 -109 -85 -114 -79 -7 7 122 174 142 184 11 6
115 103 232 215 182 176 209 205 197 218 -12 11 -19 12 -37 2 -12 -6 -24 -9
-27 -6 -3 3 16 15 41 28 38 18 49 20 55 9 6 -10 28 6 82 59 43 41 65 69 54 66
-11 -2 -59 -12 -108 -21 -82 -15 -146 -33 -121 -34 7 -1 14 -7 17 -15 8 -20
-103 -78 -123 -66 -25 16 -73 11 -94 -9 -20 -18 -23 -18 -59 -4 -26 11 -36 20
-33 30 5 12 -2 14 -36 8 -110 -16 -109 -7 -9 -102 l91 -85 -42 -59 c-23 -32
-45 -59 -49 -59 -9 0 -93 -70 -97 -81 -2 -4 -35 -39 -75 -78 l-71 -69 11 -54
c11 -55 8 -82 -8 -72 -17 10 -86 -7 -108 -27 -14 -14 -21 -32 -21 -59 0 -41
-12 -52 -86 -81 -22 -8 -25 -7 -16 4 6 7 7 18 2 26 -4 8 -6 20 -3 28 9 23 -1
15 -67 -54 -36 -37 -57 -61 -47 -54 9 8 17 10 17 7 0 -4 9 -2 21 4 11 7 23 9
26 6 4 -3 -28 -21 -69 -40 -41 -20 -97 -53 -124 -76 -77 -63 -91 -58 -222 83
-29 31 -57 57 -61 57 -4 0 -13 11 -19 25 -26 57 15 32 117 -69 58 -58 110
-106 116 -106 9 0 33 23 473 450 161 156 304 299 318 317 l24 32 -95 95 c-86
86 -93 96 -73 101 13 2 140 27 283 55 143 28 316 63 385 79 69 15 128 26 132
24 4 -2 5 -18 2 -36z m-449 -217 c0 -18 -6 -26 -23 -28 -13 -2 -25 3 -28 12
-10 26 4 48 28 44 17 -2 23 -10 23 -28z m-101 -25 c3 -8 0 -26 -6 -40 -11 -24
-12 -24 -24 -6 -18 25 -14 61 7 61 9 0 19 -7 23 -15z m-629 -94 c261 -85 301
-101 253 -101 -26 0 -212 55 -421 124 l-98 33 -202 -63 c-111 -35 -326 -104
-477 -153 l-275 -89 -6 -377 c-4 -261 -10 -380 -18 -388 -8 -8 -11 89 -9 388
l3 399 130 42 c178 57 606 195 739 237 60 19 114 34 120 32 6 -2 124 -40 261
-84z m722 18 c-9 -5 -21 -8 -26 -4 -5 3 -12 1 -16 -5 -3 -6 1 -13 9 -16 21 -8
20 -24 -1 -40 -13 -9 -21 -9 -31 -1 -11 8 -18 5 -33 -13 -10 -14 -17 -30 -16
-35 2 -11 -42 -59 -48 -53 -6 5 71 116 103 151 15 16 36 27 51 27 23 -1 24 -2
8 -11z m-721 -95 c148 -47 273 -90 278 -95 9 -8 -529 -549 -546 -549 -4 0 -33
28 -65 62 -32 34 -73 76 -90 94 -23 23 -33 42 -33 64 0 60 -48 120 -97 120
-55 0 -103 -48 -103 -103 0 -17 -68 -92 -260 -288 l-259 -264 -1 373 0 373 47
20 c42 18 200 71 668 222 94 30 175 55 181 56 7 1 133 -38 280 -85z m958 -20
c21 -21 20 -30 -6 -48 -16 -11 -25 -13 -35 -4 -17 13 -17 55 0 61 20 9 25 8
41 -9z m52 -107 c0 -28 -1 -43 -4 -32 -2 11 -8 25 -14 32 -8 10 4 53 15 53 1
0 2 -24 3 -53z m-111 13 c3 -5 -3 -10 -15 -10 -12 0 -18 5 -15 10 3 6 10 10
15 10 5 0 12 -4 15 -10z m-155 -15 c0 -2 -10 -9 -22 -15 -22 -11 -22 -10 -4 4
21 17 26 19 26 11z m-354 -88 c-38 -60 -57 -78 -49 -49 3 12 -3 22 -18 28
l-22 10 27 18 c19 12 31 14 39 7 9 -7 18 -2 32 19 35 52 27 24 -9 -33z m-910
-162 c31 -48 -15 -101 -62 -70 -26 17 -33 62 -12 83 20 20 56 14 74 -13z m806
-62 c24 -21 23 -58 -2 -83 -26 -26 -46 -25 -75 5 -30 29 -31 49 -5 75 24 24
57 26 82 3z m344 -235 c-12 -435 -16 -513 -26 -516 -6 -2 -10 -20 -10 -40 -1
-95 -56 -243 -138 -366 -83 -127 -282 -318 -467 -451 -86 -61 -190 -125 -206
-125 -5 0 -9 101 -9 255 0 289 -11 256 101 298 149 56 375 150 387 161 30 28
117 364 99 382 -4 4 -49 -9 -100 -29 -511 -200 -477 -189 -477 -158 0 13 38
57 107 123 59 57 247 239 417 405 171 167 315 303 320 303 5 0 5 -107 2 -242z
m-1256 186 c0 -21 -129 -218 -138 -210 -3 3 5 17 18 31 13 14 21 27 19 30 -3
2 -23 -17 -44 -43 -22 -26 -31 -40 -20 -32 17 14 18 13 12 -2 -3 -9 -2 -18 4
-20 5 -2 -5 -30 -22 -63 -51 -98 -55 -103 -82 -98 -53 10 -117 -50 -117 -111
0 -29 -42 -65 -116 -97 -27 -12 -62 -31 -79 -43 -16 -11 -50 -32 -76 -46 -25
-14 -70 -42 -102 -62 -31 -21 -59 -38 -63 -38 -9 0 788 807 799 809 4 0 7 -2
7 -5z m80 -75 c14 -40 15 -41 22 -18 7 21 7 20 4 -6 -3 -16 0 -51 6 -77 10
-41 9 -49 -10 -73 -12 -15 -20 -31 -17 -35 5 -9 -253 -155 -261 -148 -2 3 18
42 46 88 27 46 50 86 50 89 0 27 127 234 139 227 4 -3 14 -24 21 -47z m700 4
c-6 -10 -50 -70 -99 -133 -49 -63 -84 -118 -79 -121 12 -8 -8 -49 -23 -49 -6
0 -7 5 -3 12 4 7 3 8 -4 4 -6 -4 -8 -14 -5 -23 4 -9 2 -14 -3 -10 -10 6 -52
-43 -145 -171 -35 -48 -65 -80 -70 -75 -12 12 -50 125 -44 131 3 3 5 0 5 -7 0
-7 6 -11 14 -8 9 3 21 -4 30 -19 20 -29 30 -30 56 -4 24 24 25 34 4 54 -12 12
-20 13 -35 6 -24 -14 -46 -2 -90 47 -18 21 -30 30 -26 21 20 -49 15 -47 -13 6
-21 41 -27 63 -20 70 5 5 10 20 10 33 0 21 4 23 55 23 31 0 78 9 107 20 29 11
54 20 56 20 1 0 2 -9 2 -21 0 -16 4 -19 23 -14 12 4 28 14 35 23 11 14 10 19
-4 29 -15 11 -14 13 12 24 29 13 99 53 204 116 63 38 64 39 50 16z m-610 -48
c3 -12 44 -51 59 -56 15 -6 26 -59 12 -59 -27 0 -71 31 -71 51 0 11 -4 28 -9
37 -4 9 -11 31 -15 47 -7 28 -6 29 7 10 8 -11 16 -24 17 -30z m24 -146 c25
-36 -5 -70 -45 -49 -24 13 -25 46 -1 59 24 15 29 14 46 -10z m-419 -214 c30
-29 31 -49 5 -75 -24 -24 -57 -26 -82 -3 -30 27 -23 69 17 91 28 16 33 15 60
-13z m-392 0 c4 -8 2 -17 -3 -20 -6 -4 -10 3 -10 14 0 25 6 27 13 6z m643
-1032 c-7 -8 -219 172 -278 236 -62 66 -155 201 -163 234 -4 18 36 64 217 250
l223 227 3 -471 c1 -260 0 -474 -2 -476z m95 861 c8 -66 26 -124 40 -124 5 0
23 -15 39 -32 l31 -33 -6 40 c-4 33 -4 36 5 16 7 -17 16 -22 30 -18 11 3 20 2
21 -1 6 -57 2 -132 -8 -132 -6 0 -14 9 -18 19 -4 13 -13 18 -27 16 -28 -6 -30
-9 -20 -36 7 -17 4 -32 -10 -56 -20 -33 -20 -33 1 -66 l21 -34 -20 -39 c-12
-21 -26 -56 -32 -76 -6 -21 -17 -38 -25 -38 -7 0 -13 -11 -13 -25 0 -18 5 -25
19 -25 50 0 50 -58 0 -70 -13 -3 -24 -11 -23 -18 1 -7 2 -49 3 -94 1 -94 9
-101 13 -10 1 34 3 62 5 62 11 0 139 -328 131 -336 -2 -1 -34 17 -72 39 -38
23 -84 51 -102 62 -185 111 -517 418 -528 488 -1 7 -5 18 -10 25 -4 7 -6 15
-4 18 3 2 34 -33 70 -78 87 -110 210 -227 344 -327 l109 -81 3 516 c2 405 5
515 15 512 7 -3 15 -31 18 -64z m84 -20 c23 -30 24 -35 9 -32 -20 3 -43 33
-44 56 0 19 5 15 35 -24z m-1065 -183 c22 -43 -1 -81 -49 -81 -34 0 -51 17
-51 50 0 35 17 50 57 50 22 0 36 -6 43 -19z m1608 -18 c4 -24 -30 -48 -54 -39
-14 6 -19 47 -7 60 16 15 58 1 61 -21z m-441 -139 c8 -20 -8 -48 -30 -52 -22
-5 -42 35 -26 54 16 19 48 18 56 -2z m153 6 c-8 -5 -19 -10 -25 -10 -5 0 -3 5
5 10 8 5 20 10 25 10 6 0 3 -5 -5 -10z m9 -26 c2 -2 -12 -10 -32 -19 -30 -12
-39 -13 -62 -1 l-26 14 28 10 c24 8 80 6 92 -4z m-1033 -88 c13 -22 14 -29 2
-53 -25 -52 -108 -35 -108 23 0 54 76 75 106 30z m863 -18 c-15 -53 -31 -88
-40 -88 -5 0 -3 -10 5 -22 15 -25 26 -223 17 -293 l-6 -40 -22 50 c-38 89 -48
134 -35 156 14 22 16 64 3 88 -7 12 -2 39 16 90 24 66 33 77 70 90 1 1 -3 -14
-8 -31z m-1281 -194 c51 -35 4 -115 -55 -93 -34 13 -40 55 -12 85 26 28 37 30
67 8z"/>
<path d="M7710 5138 c-12 -22 -12 -22 6 -6 10 10 15 20 12 24 -4 3 -12 -5 -18
-18z"/>
<path d="M7335 4600 c-4 -6 -10 -8 -15 -5 -4 3 -13 -1 -19 -8 -17 -22 16 -17
36 5 9 10 13 18 10 18 -3 0 -9 -5 -12 -10z"/>
<path d="M6830 4490 c0 -5 5 -10 11 -10 5 0 7 5 4 10 -3 6 -8 10 -11 10 -2 0
-4 -4 -4 -10z"/>
<path d="M7041 4364 c0 -11 3 -14 6 -6 3 7 2 16 -1 19 -3 4 -6 -2 -5 -13z"/>
<path d="M7034 4318 l-19 -23 23 19 c12 11 22 21 22 23 0 8 -8 2 -26 -19z"/>
<path d="M6890 4247 c-19 -6 -36 -11 -38 -13 -9 -6 21 -44 35 -44 13 0 13 -3
2 -17 -7 -10 1 -5 19 11 18 17 32 40 32 53 0 25 0 25 -50 10z"/>
<path d="M6720 4040 c0 -5 5 -10 10 -10 6 0 10 5 10 10 0 6 -4 10 -10 10 -5 0
-10 -4 -10 -10z"/>
<path d="M6604 4068 l-19 -23 23 19 c21 18 27 26 19 26 -2 0 -12 -10 -23 -22z"/>
<path d="M6506 3975 c-11 -8 -14 -15 -8 -15 7 0 12 -9 12 -20 0 -11 5 -20 10
-20 6 0 10 16 8 35 -1 19 -2 35 -3 35 0 0 -9 -7 -19 -15z"/>
<path d="M6183 3500 c0 -25 2 -35 4 -22 2 12 2 32 0 45 -2 12 -4 2 -4 -23z"/>
<path d="M6180 3238 c0 -73 2 -80 14 -63 21 31 25 87 10 118 -8 15 -17 27 -19
27 -3 0 -5 -37 -5 -82z"/>
</g>
</svg>
